<?xml version="1.0" encoding="UTF-8" standalone="no"?>
<svg
   version="1.0"
   width="1200.000000pt"
   height="1200.000000pt"
   viewBox="0 0 1200.000000 1200.000000"
   preserveAspectRatio="xMidYMid meet"
   id="svg4"
   sodipodi:docname="pngwing.com-_1_.svg"
   inkscape:version="1.3.2 (091e20e, 2023-11-25, custom)"
   xmlns:inkscape="http://www.inkscape.org/namespaces/inkscape"
   xmlns:sodipodi="http://sodipodi.sourceforge.net/DTD/sodipodi-0.dtd"
   xmlns="http://www.w3.org/2000/svg"
   xmlns:svg="http://www.w3.org/2000/svg">
  <defs
     id="defs4" />
  <sodipodi:namedview
     id="namedview4"
     pagecolor="#ffffff"
     bordercolor="#111111"
     borderopacity="1"
     inkscape:showpageshadow="0"
     inkscape:pageopacity="0"
     inkscape:pagecheckerboard="1"
     inkscape:deskcolor="#d1d1d1"
     inkscape:document-units="pt"
     inkscape:zoom="0.2309375"
     inkscape:cx="-99.594046"
     inkscape:cy="911.50203"
     inkscape:window-width="1920"
     inkscape:window-height="974"
     inkscape:window-x="-11"
     inkscape:window-y="-11"
     inkscape:window-maximized="1"
     inkscape:current-layer="svg4" />
  <g
     transform="translate(0.000000,1200.000000) scale(0.100000,-0.100000)"
     fill="#000000"
     stroke="none"
     id="g4"
     style="fill:#008000;fill-opacity:1">
    <path
       d="M693 11273 c-10 -4 -13 -756 -13 -3714 l0 -3709 23 -4 c41 -9 1201 -16 3297 -23 1147 -3 2087 -7 2090 -10 2 -2 -1 -13 -8 -23 -7 -11 -12 -36 -12 -55 0 -19 -4 -35 -9 -35 -5 0 -11 -17 -14 -38 -10 -65 -31 -142 -39 -142 -4 0 -8 -27 -8 -60 0 -35 4 -60 10 -60 13 0 27 -11 91 -72 27 -27 52 -48 55 -48 2 0 27 -21 55 -47 92 -87 98 -93 103 -93 3 0 28 -21 54 -47 65 -64 100 -93 112 -93 16 0 16 -109 1 -120 -4 -3 -16 -20 -26 -38 -11 -17 -23 -32 -27 -32 -4 0 -8 -9 -8 -20 0 -11 -4 -20 -10 -20 -5 0 -10 -5 -10 -11 0 -6 -6 -17 -12 -24 -30 -33 -38 -45 -38 -55 0 -5 -4 -10 -10 -10 -5 0 -10 -4 -10 -10 0 -9 -39 -72 -60 -97 -5 -7 -10 -17 -10 -23 0 -5 -3 -10 -8 -10 -4 0 -16 -16 -26 -35 -11 -19 -23 -35 -28 -35 -4 0 -8 -9 -8 -20 0 -11 -4 -20 -8 -20 -5 0 -17 -17 -28 -37 -10 -21 -23 -42 -29 -46 -6 -6 -6 -10 3 -14 6 -2 12 -13 12 -24 0 -10 5 -19 10 -19 6 0 10 -7 10 -15 0 -8 4 -15 10 -15 5 0 12 -11 16 -25 3 -14 10 -25 15 -25 5 0 9 -7 9 -15 0 -9 9 -26 20 -38 12 -12 23 -32 26 -44 4 -13 10 -23 15 -23 5 0 9 -9 9 -20 0 -11 3 -20 8 -20 4 0 16 -16 26 -35 11 -19 23 -35 28 -35 4 0 8 -6 8 -14 0 -18 32 -76 43 -76 4 0 7 -7 7 -15 0 -8 5 -15 10 -15 6 0 10 -9 10 -20 0 -11 4 -20 9 -20 5 0 12 -11 15 -25 4 -14 11 -25 16 -25 6 0 10 -7 10 -15 0 -8 5 -15 10 -15 6 0 10 -9 10 -20 0 -11 4 -20 8 -20 5 0 17 -18 28 -40 10 -22 22 -40 27 -40 4 0 7 -9 7 -20 0 -11 3 -20 8 -20 4 0 16 -16 26 -35 11 -19 23 -35 28 -35 4 0 8 -8 8 -18 0 -10 9 -25 20 -35 21 -18 70 -24 70 -8 0 5 66 11 148 14 81 2 213 11 294 18 124 11 151 11 172 -1 15 -7 26 -19 26 -27 0 -7 3 -13 8 -13 4 0 15 -37 25 -82 10 -46 23 -97 28 -114 5 -17 9 -47 9 -67 0 -20 5 -37 10 -37 6 0 10 -17 10 -37 1 -21 7 -56 15 -78 8 -22 15 -55 15 -72 0 -18 5 -33 10 -33 6 0 10 -27 10 -60 0 -33 4 -60 10 -60 6 0 10 -9 10 -20 0 -16 7 -20 35 -20 19 0 35 -4 35 -10 0 -5 14 -10 30 -10 17 0 47 -7 67 -15 19 -8 48 -15 64 -15 16 0 29 -4 29 -10 0 -5 16 -10 35 -10 19 0 43 -4 53 -9 23 -12 108 -33 155 -39 20 -2 37 -8 37 -13 0 -5 16 -9 35 -9 19 0 43 -4 53 -9 37 -18 121 -41 151 -41 17 0 31 -4 31 -10 0 -5 16 -10 35 -10 19 0 43 -4 53 -9 9 -5 37 -13 61 -19 44 -10 44 -10 85 33 79 83 106 116 106 125 0 6 7 10 15 10 8 0 15 3 15 8 0 6 10 20 71 90 10 12 19 24 19 26 0 2 32 36 70 76 39 40 70 75 70 78 0 2 12 15 28 28 30 26 82 32 104 12 7 -7 27 -20 43 -28 17 -8 39 -23 49 -32 11 -10 28 -20 38 -24 10 -3 18 -10 18 -15 0 -5 7 -9 15 -9 8 0 15 -4 15 -10 0 -5 7 -10 15 -10 9 0 28 -11 43 -25 15 -14 32 -25 39 -25 7 0 13 -4 13 -10 0 -5 6 -10 13 -10 7 0 24 -11 39 -25 15 -14 34 -25 43 -25 8 0 15 -4 15 -10 0 -5 5 -10 11 -10 6 0 17 -6 24 -12 24 -22 39 -32 75 -52 19 -11 38 -23 41 -28 6 -10 69 22 69 35 0 4 9 7 20 7 11 0 20 5 20 10 0 6 7 10 15 10 8 0 15 4 15 10 0 5 11 12 25 16 14 3 25 10 25 15 0 5 9 9 20 9 11 0 20 5 20 10 0 6 7 10 15 10 8 0 15 4 15 10 0 5 11 12 25 16 14 3 25 10 25 15 0 5 9 9 20 9 11 0 20 4 20 8 0 5 16 17 35 28 19 10 35 22 35 26 0 5 6 8 14 8 18 0 76 32 76 43 0 4 7 7 15 7 8 0 15 5 15 10 0 6 9 10 20 10 11 0 20 4 20 9 0 5 11 12 25 15 14 4 25 11 25 16 0 6 7 10 15 10 8 0 15 5 15 10 0 6 9 10 20 10 11 0 20 4 20 8 0 5 18 17 40 28 22 10 40 22 40 27 0 4 9 7 20 7 11 0 20 4 20 9 0 5 8 12 18 15 31 10 72 53 72 75 0 11 -4 21 -9 21 -6 0 -12 76 -15 172 -3 95 -8 233 -12 307 -6 137 2 181 33 181 7 0 13 5 13 10 0 6 20 10 45 10 25 0 45 4 45 9 0 5 21 12 48 15 85 9 182 30 182 38 0 4 23 8 50 8 28 0 50 5 50 10 0 6 17 10 38 10 20 0 59 7 86 15 27 8 60 15 73 15 14 0 30 6 36 13 16 17 47 109 47 141 0 14 5 26 10 26 6 0 10 20 10 45 0 25 4 45 8 45 8 0 27 79 39 152 3 21 9 38 14 38 5 0 9 17 9 38 0 21 3 42 7 46 8 7 29 90 40 153 3 18 9 33 14 33 5 0 9 20 9 45 0 25 5 45 10 45 6 0 10 13 10 29 0 16 7 45 15 64 24 57 20 112 -10 139 -60 56 -75 68 -79 68 -3 0 -33 27 -67 60 -34 33 -65 60 -69 60 -4 0 -40 31 -80 70 -40 38 -74 70 -76 70 -2 0 -14 9 -26 19 -13 11 -34 29 -46 40 -19 15 -24 31 -25 67 0 28 5 50 11 52 7 2 12 10 12 18 0 8 5 14 10 14 6 0 10 6 10 13 0 7 11 24 25 39 14 15 25 34 25 43 0 8 5 15 10 15 6 0 10 7 10 15 0 8 3 15 8 15 4 0 16 17 27 37 11 21 24 43 30 50 24 29 31 40 45 68 8 17 25 41 38 55 12 14 22 30 22 37 0 7 5 13 10 13 6 0 10 9 10 20 0 11 4 20 8 20 5 0 17 16 28 35 10 19 22 35 26 35 5 0 8 14 8 30 0 17 -4 30 -10 30 -7 0 -11 1194 -12 3548 l-3 3547 -5295 2 c-2912 1 -5301 -1 -5307 -4z m9947 -3452 l0 -2799 -77 -6 c-43 -4 -119 -11 -170 -16 -50 -6 -135 -10 -189 -10 -90 0 -98 2 -120 25 -13 14 -26 42 -29 63 -4 20 -10 47 -16 60 -5 13 -9 43 -9 67 0 25 -4 45 -10 45 -5 0 -10 16 -10 36 0 19 -4 43 -10 53 -11 22 -30 116 -37 189 -3 28 -9 52 -14 52 -5 0 -9 18 -9 41 0 22 -8 54 -17 70 -14 24 -24 29 -54 29 -21 0 -39 4 -41 10 -1 5 -20 10 -40 12 -21 1 -38 5 -38 9 0 4 -22 10 -50 14 -27 4 -52 11 -56 16 -3 5 -23 9 -45 9 -21 0 -39 4 -39 9 0 5 -17 11 -37 13 -47 6 -132 27 -155 39 -10 5 -34 9 -53 9 -19 0 -35 5 -35 10 0 6 -13 10 -29 10 -16 0 -45 7 -64 15 -20 8 -50 15 -66 15 -16 0 -33 5 -36 10 -3 6 -24 10 -45 10 -21 0 -40 4 -42 9 -6 16 -88 20 -101 5 -7 -8 -33 -37 -59 -64 -27 -27 -48 -52 -48 -55 0 -3 -17 -24 -37 -45 -68 -71 -83 -89 -83 -96 0 -3 -19 -25 -43 -47 -23 -23 -56 -60 -72 -81 -62 -82 -82 -96 -136 -96 -27 0 -49 4 -49 8 0 5 -16 17 -35 28 -19 10 -35 22 -35 26 0 5 -7 8 -15 8 -8 0 -15 3 -15 8 0 8 -57 42 -71 42 -6 0 -21 11 -35 25 -14 14 -31 25 -39 25 -8 0 -15 5 -15 10 0 6 -7 10 -15 10 -8 0 -15 3 -15 8 0 4 -16 16 -35 26 -19 11 -35 23 -35 28 0 4 -9 8 -20 8 -11 0 -20 4 -20 8 0 5 -16 17 -35 28 -19 10 -35 22 -35 26 0 5 -7 8 -15 8 -8 0 -15 4 -15 8 0 16 -52 34 -64 22 -5 -5 -18 -10 -28 -10 -10 0 -18 -4 -18 -10 0 -5 -7 -10 -15 -10 -8 0 -15 -3 -15 -8 0 -4 -17 -16 -37 -27 -21 -11 -40 -22 -43 -25 -3 -3 -22 -14 -42 -25 -21 -11 -38 -23 -38 -27 0 -5 -9 -8 -20 -8 -11 0 -20 -4 -20 -10 0 -5 -7 -10 -15 -10 -8 0 -15 -4 -15 -9 0 -5 -11 -12 -25 -15 -14 -4 -25 -11 -25 -16 0 -6 -9 -10 -20 -10 -11 0 -20 -4 -20 -10 0 -5 -7 -10 -15 -10 -8 0 -15 -4 -15 -10 0 -5 -11 -12 -25 -16 -14 -3 -25 -10 -25 -15 0 -5 -9 -9 -20 -9 -11 0 -20 -4 -20 -10 0 -5 -7 -10 -15 -10 -8 0 -15 -3 -15 -7 0 -11 -58 -43 -76 -43 -8 0 -14 -3 -14 -8 0 -4 -16 -16 -35 -26 -19 -11 -35 -23 -35 -28 0 -4 -9 -8 -20 -8 -11 0 -20 -4 -20 -9 0 -5 -11 -12 -25 -15 -14 -4 -25 -11 -25 -16 0 -6 -7 -10 -15 -10 -8 0 -15 -4 -15 -10 0 -5 -9 -10 -19 -10 -11 0 -21 -6 -24 -12 -8 -23 6 -373 14 -376 5 -2 9 -76 9 -164 0 -153 -1 -161 -22 -179 -13 -10 -39 -18 -60 -19 -20 0 -38 -4 -40 -9 -1 -5 -21 -11 -43 -12 -22 -2 -54 -9 -72 -16 -18 -7 -51 -13 -73 -13 -22 0 -40 -4 -40 -10 0 -6 -30 -10 -70 -10 -40 0 -70 -4 -70 -10 0 -7 -370 -10 -1090 -10 -720 0 -1090 3 -1090 10 0 7 -495 10 -1464 10 -1386 0 -1464 1 -1467 18 -4 14 -3 5786 0 6030 l1 72 4640 0 4640 0 0 -2799z m-1402 -2618 c23 -3 42 -10 42 -14 0 -5 16 -9 35 -9 24 0 35 -5 35 -15 0 -8 4 -15 8 -15 9 0 30 -94 39 -172 3 -27 8 -48 13 -48 4 0 10 -21 13 -47 3 -27 13 -79 22 -118 9 -38 19 -87 22 -107 3 -21 10 -38 17 -38 6 0 23 -11 38 -25 15 -14 32 -25 37 -25 11 0 38 -20 73 -52 10 -10 23 -18 28 -18 6 0 23 -11 38 -25 15 -14 31 -25 37 -25 6 0 17 -9 25 -20 8 -11 18 -20 23 -20 7 0 20 -9 52 -37 7 -7 16 -13 20 -13 6 0 20 -11 51 -38 16 -15 55 -14 345 9 146 11 168 11 180 -2 20 -21 39 -51 45 -71 4 -10 10 -18 15 -18 5 0 9 -9 9 -19 0 -11 6 -21 12 -23 7 -3 13 -23 13 -48 0 -25 -6 -45 -13 -48 -6 -2 -12 -8 -12 -13 0 -9 -8 -21 -37 -54 -7 -7 -13 -21 -13 -29 0 -9 -4 -16 -10 -16 -5 0 -10 -7 -10 -15 0 -8 -3 -15 -8 -15 -4 0 -16 -16 -26 -35 -11 -19 -23 -35 -28 -35 -4 0 -8 -5 -8 -10 0 -12 -52 -94 -62 -98 -5 -2 -8 -10 -8 -18 0 -8 -4 -14 -10 -14 -5 0 -10 -6 -10 -14 0 -7 -7 -19 -16 -27 -11 -9 -14 -22 -9 -43 24 -117 38 -200 42 -253 3 -35 8 -63 13 -63 5 0 11 -28 13 -62 9 -103 18 -135 46 -167 15 -17 31 -31 35 -31 5 0 33 -25 62 -55 30 -30 58 -55 63 -55 4 0 36 -27 70 -60 34 -33 64 -60 67 -60 3 0 16 -11 29 -25 25 -24 35 -75 15 -75 -5 0 -10 -12 -10 -26 0 -32 -30 -125 -45 -140 -6 -7 -31 -14 -56 -17 -65 -8 -166 -31 -175 -39 -4 -5 -29 -8 -56 -8 -26 0 -48 -4 -48 -9 0 -5 -21 -11 -47 -14 -77 -8 -133 -26 -159 -52 -13 -13 -24 -27 -24 -30 0 -4 -6 -13 -12 -20 -30 -33 -38 -45 -38 -55 0 -5 -4 -10 -9 -10 -5 0 -12 -8 -16 -19 -3 -10 -19 -33 -35 -50 -17 -17 -30 -35 -30 -39 0 -5 -11 -22 -25 -38 -14 -16 -25 -35 -25 -41 0 -7 -4 -13 -10 -13 -5 0 -10 -5 -10 -10 0 -6 -11 -23 -25 -38 -14 -15 -25 -32 -25 -39 0 -7 -4 -13 -10 -13 -6 0 -10 -37 -10 -90 0 -53 4 -90 10 -90 6 0 10 -62 10 -166 0 -167 -6 -194 -39 -194 -6 0 -11 -3 -11 -7 0 -11 -58 -43 -76 -43 -8 0 -14 -4 -14 -10 0 -5 -7 -10 -15 -10 -8 0 -15 -5 -15 -12 0 -9 -3 -9 -12 0 -7 7 -20 12 -30 12 -10 0 -18 5 -18 10 0 6 -5 10 -10 10 -10 0 -22 8 -55 38 -7 6 -18 12 -24 12 -6 0 -11 5 -11 10 0 6 -6 10 -13 10 -7 0 -24 11 -39 25 -15 14 -31 25 -37 25 -14 0 -71 34 -71 43 0 4 -5 7 -10 7 -6 0 -16 5 -23 10 -25 21 -88 60 -97 60 -6 0 -10 5 -10 10 0 12 -67 13 -72 1 -1 -5 -30 -11 -63 -15 -76 -7 -181 -25 -221 -37 -17 -5 -54 -9 -82 -9 -29 0 -52 -4 -52 -10 0 -5 -14 -10 -32 -10 -26 0 -43 -12 -95 -66 -35 -36 -63 -68 -63 -70 0 -7 -19 -29 -72 -85 -27 -27 -48 -52 -48 -55 0 -3 -10 -15 -22 -28 -13 -13 -33 -35 -46 -50 -18 -21 -29 -26 -45 -21 -12 4 -45 12 -74 19 -28 6 -55 15 -59 19 -4 4 -17 7 -30 7 -16 0 -26 10 -38 40 -9 22 -16 54 -16 70 0 17 -4 30 -10 30 -5 0 -10 19 -10 42 0 23 -4 55 -9 72 -20 68 -41 173 -41 204 0 17 -4 32 -10 32 -5 0 -10 9 -10 21 0 11 -6 26 -12 32 -23 22 -87 67 -94 67 -4 0 -14 8 -23 18 -9 10 -31 27 -48 37 -18 11 -33 23 -33 27 0 4 -5 8 -10 8 -10 0 -22 8 -55 37 -7 7 -16 13 -20 13 -6 0 -19 10 -50 38 -7 6 -17 12 -22 12 -5 0 -15 9 -23 20 -8 11 -19 20 -24 20 -5 0 -17 7 -26 15 -15 14 -32 14 -161 0 -79 -8 -192 -15 -251 -15 l-107 0 -26 37 c-14 21 -25 43 -25 50 0 7 -4 13 -8 13 -16 0 -45 78 -39 102 4 13 14 33 24 44 22 25 38 49 60 92 9 17 20 32 25 32 4 0 8 7 8 15 0 8 4 15 9 15 5 0 12 8 15 18 13 32 31 62 38 62 5 0 8 5 8 12 0 6 11 26 25 44 14 18 25 37 25 43 0 6 4 11 8 11 4 0 15 12 24 28 13 22 14 36 6 77 -5 28 -12 78 -15 113 -3 34 -8 62 -13 62 -5 0 -11 28 -13 63 -6 73 -31 213 -43 242 -8 20 -98 115 -109 115 -3 0 -23 17 -44 38 -49 47 -90 82 -97 82 -10 0 -34 28 -34 39 0 6 -5 11 -10 11 -19 0 -80 69 -80 90 0 11 5 20 10 20 6 0 10 18 10 40 0 22 4 40 9 40 6 0 11 17 13 38 2 27 9 40 26 47 12 5 22 13 22 17 0 5 22 8 48 8 27 0 52 3 56 8 9 8 107 29 179 39 26 3 47 9 47 14 0 5 22 9 49 9 28 0 53 5 56 10 3 6 17 10 30 10 13 0 30 7 37 15 7 9 19 22 26 30 6 7 12 16 12 20 0 4 6 12 13 20 6 7 21 25 32 41 11 15 26 33 33 40 6 7 12 16 12 21 0 4 11 20 25 35 14 15 25 32 25 38 0 6 11 21 25 34 14 13 25 28 25 35 0 6 5 11 10 11 6 0 10 6 10 13 0 10 13 28 60 84 13 16 13 243 0 243 -6 0 -10 54 -10 141 0 145 6 169 44 169 9 0 16 4 16 9 0 5 8 12 18 15 32 13 62 31 62 38 0 18 70 6 104 -17 20 -14 41 -25 46 -25 6 0 10 -4 10 -10 0 -5 5 -10 10 -10 10 0 22 -8 55 -37 7 -7 18 -13 24 -13 6 0 11 -4 11 -10 0 -5 9 -10 20 -10 11 0 20 -4 20 -8 0 -5 16 -17 35 -28 19 -10 35 -22 35 -26 0 -5 5 -8 11 -8 6 0 25 -11 43 -25 18 -14 40 -25 49 -25 10 0 17 -4 17 -10 0 -5 23 -10 50 -10 28 0 50 4 50 9 0 5 28 12 63 14 34 3 100 13 147 22 47 9 113 19 148 22 34 2 62 9 62 14 0 5 11 9 24 9 16 0 32 10 45 28 11 16 51 61 90 101 39 41 71 77 71 81 0 4 20 28 45 54 25 27 45 52 45 57 0 5 7 9 15 9 8 0 15 6 15 14 0 19 19 26 50 20 14 -2 44 -7 68 -11z"
       id="path1"
       style="fill:#008000;fill-opacity:1" />
    <path
       d="M2480 9900 c-8 -5 -27 -10 -42 -10 -16 0 -28 -4 -28 -10 0 -5 -7 -10 -15 -10 -35 0 -145 -95 -145 -124 0 -9 -3 -16 -8 -16 -15 0 -42 -99 -42 -156 0 -58 26 -154 42 -154 4 0 8 -7 8 -16 0 -8 79 -94 175 -191 96 -96 175 -177 175 -180 0 -7 28 -33 35 -33 8 0 35 -27 35 -35 0 -8 27 -35 35 -35 10 0 35 -28 35 -39 0 -6 3 -11 8 -11 12 0 62 -47 62 -59 0 -6 5 -11 11 -11 11 0 39 -25 39 -35 0 -8 27 -35 35 -35 8 0 35 -27 35 -35 0 -8 27 -35 35 -35 8 0 35 -27 35 -35 0 -8 27 -35 35 -35 8 0 35 -27 35 -35 0 -8 27 -35 35 -35 8 0 35 -27 35 -35 0 -8 27 -35 35 -35 8 0 35 -27 35 -35 0 -8 27 -35 35 -35 8 0 35 -27 35 -35 0 -10 28 -35 39 -35 6 0 11 -5 11 -10 0 -14 46 -60 60 -60 5 0 10 -5 10 -10 0 -6 25 -35 56 -65 l56 -55 -56 -55 c-31 -30 -56 -59 -56 -65 0 -5 -5 -10 -10 -10 -14 0 -60 -46 -60 -60 0 -5 -5 -10 -10 -10 -14 0 -60 -46 -60 -60 0 -5 -5 -10 -11 -10 -11 0 -39 -25 -39 -35 0 -8 -27 -35 -35 -35 -8 0 -35 -27 -35 -35 0 -8 -27 -35 -35 -35 -8 0 -35 -27 -35 -35 0 -8 -27 -35 -35 -35 -8 0 -35 -27 -35 -35 0 -8 -27 -35 -35 -35 -8 0 -35 -27 -35 -35 0 -8 -27 -35 -35 -35 -8 0 -35 -27 -35 -35 0 -8 -27 -35 -35 -35 -8 0 -35 -27 -35 -35 0 -8 -27 -35 -35 -35 -8 0 -35 -27 -35 -35 0 -10 -28 -35 -39 -35 -6 0 -11 -5 -11 -10 0 -14 -46 -60 -60 -60 -5 0 -10 -5 -10 -10 0 -14 -46 -60 -60 -60 -5 0 -10 -5 -10 -10 0 -14 -46 -60 -60 -60 -5 0 -10 -5 -10 -10 0 -14 -46 -60 -60 -60 -5 0 -10 -5 -10 -10 0 -6 -32 -42 -70 -80 -38 -38 -70 -77 -70 -85 0 -8 -4 -15 -10 -15 -5 0 -10 -8 -10 -17 0 -10 -7 -26 -14 -35 -20 -27 -20 -149 1 -208 10 -27 21 -50 25 -50 5 0 8 -7 8 -16 0 -17 73 -94 90 -94 5 0 10 -4 10 -8 0 -12 73 -42 103 -42 15 0 27 -4 27 -10 0 -5 23 -10 50 -10 28 0 50 5 50 10 0 6 14 10 32 10 17 0 52 12 77 27 43 25 1551 1526 1551 1543 0 4 7 13 15 20 8 7 15 21 15 31 0 11 5 19 10 19 6 0 10 16 10 35 0 19 5 35 10 35 6 0 10 27 10 60 0 33 -4 60 -10 60 -5 0 -10 16 -10 35 0 19 -4 35 -9 35 -5 0 -12 11 -15 24 -3 13 -21 41 -38 61 -66 75 -1494 1501 -1520 1518 -15 9 -34 17 -43 17 -8 0 -15 3 -15 8 0 9 -94 32 -130 32 -14 0 -32 -5 -40 -10z"
       id="path2"
       style="fill:#008000;fill-opacity:1" />
    <path
       d="M4948 6983 c-16 -2 -28 -9 -28 -14 0 -5 -9 -9 -20 -9 -20 0 -35 -11 -92 -67 -34 -33 -48 -51 -48 -63 0 -5 -4 -10 -8 -10 -27 0 -56 -210 -32 -225 6 -3 10 -16 10 -29 0 -12 7 -31 15 -42 8 -10 15 -25 15 -31 0 -15 75 -93 89 -93 5 0 14 -7 21 -15 7 -8 21 -15 31 -15 11 0 19 -4 19 -10 0 -5 16 -10 35 -10 19 0 35 -4 35 -10 0 -7 265 -10 775 -10 510 0 775 3 775 10 0 6 14 10 32 10 80 0 228 137 228 211 0 10 5 19 10 19 6 0 10 35 10 85 0 50 -4 85 -10 85 -5 0 -10 11 -10 24 0 14 -7 31 -15 40 -8 8 -15 19 -15 25 0 6 -4 11 -10 11 -5 0 -10 9 -10 20 0 11 -3 20 -7 20 -7 0 -28 16 -80 60 -7 5 -21 10 -32 10 -11 0 -21 6 -23 13 -4 9 -177 12 -819 13 -448 1 -826 -1 -841 -3z"
       id="path3"
       style="fill:#008000;fill-opacity:1" />
    <path
       d="M8550 4188 c-19 -5 -47 -12 -62 -15 -16 -3 -28 -9 -28 -14 0 -5 -10 -9 -22 -9 -21 0 -127 -47 -138 -61 -3 -4 -14 -9 -25 -11 -11 -1 -31 -13 -45 -25 -14 -13 -28 -23 -33 -23 -4 0 -22 -13 -40 -30 -18 -16 -35 -30 -38 -30 -13 0 -149 -143 -149 -156 0 -4 -11 -17 -25 -30 -14 -13 -25 -30 -25 -39 0 -8 -4 -15 -10 -15 -5 0 -10 -7 -10 -15 0 -8 -3 -15 -7 -15 -11 0 -43 -58 -43 -76 0 -8 -3 -14 -7 -14 -5 0 -16 -21 -26 -48 -10 -26 -23 -55 -28 -64 -5 -10 -9 -31 -9 -47 0 -16 -6 -31 -12 -33 -18 -6 -18 -370 0 -376 7 -2 12 -16 12 -31 0 -25 14 -64 41 -113 5 -10 9 -25 9 -33 0 -8 5 -15 10 -15 6 0 10 -9 10 -20 0 -11 3 -20 8 -20 8 0 42 -57 42 -71 0 -5 14 -23 30 -41 17 -17 30 -34 30 -38 0 -7 151 -161 184 -188 8 -6 20 -12 26 -12 5 0 10 -4 10 -8 0 -5 16 -17 35 -28 19 -10 35 -22 35 -26 0 -5 9 -8 19 -8 11 0 21 -3 23 -7 5 -12 64 -43 82 -43 9 0 16 -4 16 -10 0 -5 11 -10 25 -10 14 0 25 -4 25 -10 0 -5 8 -10 18 -10 9 0 35 -7 57 -15 22 -8 61 -14 88 -15 26 0 47 -4 47 -10 0 -6 30 -10 70 -10 40 0 70 4 70 10 0 6 21 10 48 10 26 1 65 7 87 15 22 8 48 15 58 15 9 0 17 5 17 10 0 6 10 10 23 10 12 0 42 11 66 25 23 14 49 25 57 25 8 0 14 5 14 10 0 6 7 10 15 10 8 0 15 4 15 9 0 5 8 12 18 15 10 4 27 14 38 24 10 9 37 30 59 47 47 35 165 155 165 167 0 5 16 24 35 42 19 19 35 41 35 50 0 9 5 16 10 16 6 0 10 7 10 15 0 8 4 15 8 15 9 0 42 70 42 88 0 7 3 12 8 12 4 0 15 28 26 63 10 34 22 70 27 79 5 10 9 42 9 72 0 30 5 58 10 61 6 3 10 35 10 71 0 36 -4 64 -10 64 -6 0 -10 27 -10 60 0 33 -4 68 -9 78 -11 23 -32 81 -38 110 -3 12 -9 22 -14 22 -5 0 -9 9 -9 20 0 11 -4 20 -10 20 -5 0 -10 6 -10 14 0 18 -32 76 -42 76 -5 0 -8 6 -8 13 0 8 -8 23 -18 35 -10 11 -27 33 -38 48 -45 62 -138 164 -150 164 -4 0 -47 35 -70 58 -7 6 -15 12 -19 12 -3 0 -21 11 -39 25 -18 14 -40 25 -49 25 -8 0 -17 3 -19 8 -4 9 -110 62 -126 62 -6 0 -12 4 -12 9 0 5 -17 11 -37 14 -21 3 -56 10 -78 16 -49 13 -287 13 -335 -1z m310 -658 c0 -5 7 -10 15 -10 39 0 125 -79 125 -115 0 -13 6 -25 13 -28 9 -3 12 -41 12 -147 0 -106 -3 -144 -12 -148 -7 -2 -13 -15 -13 -28 0 -13 -4 -24 -10 -24 -5 0 -10 -7 -10 -15 0 -8 -5 -15 -10 -15 -6 0 -22 -11 -36 -25 -14 -14 -31 -25 -39 -25 -7 0 -15 -5 -17 -12 -6 -17 -310 -17 -316 0 -2 6 -10 12 -17 12 -8 0 -25 11 -39 25 -14 14 -30 25 -36 25 -5 0 -10 6 -10 14 0 8 -3 16 -7 18 -5 2 -16 26 -26 53 -23 65 -24 246 -2 289 8 15 15 35 15 42 0 8 5 14 10 14 6 0 10 6 10 13 0 21 76 77 105 77 8 0 15 5 15 10 0 6 53 10 140 10 87 0 140 -4 140 -10z"
       id="path4"
       style="fill:#008000;fill-opacity:1" />
  </g>
</svg>
