<?xml version="1.0" encoding="UTF-8" standalone="no"?>
<svg
   version="1.0"
   width="512.000000pt"
   height="512.000000pt"
   viewBox="0 0 512.000000 512.000000"
   preserveAspectRatio="xMidYMid meet"
   id="svg1"
   sodipodi:docname="suurlasi.svg"
   inkscape:version="1.3.2 (091e20e, 2023-11-25, custom)"
   xmlns:inkscape="http://www.inkscape.org/namespaces/inkscape"
   xmlns:sodipodi="http://sodipodi.sourceforge.net/DTD/sodipodi-0.dtd"
   xmlns="http://www.w3.org/2000/svg"
   xmlns:svg="http://www.w3.org/2000/svg">
  <defs
     id="defs1" />
  <sodipodi:namedview
     id="namedview1"
     pagecolor="#ffffff"
     bordercolor="#111111"
     borderopacity="1"
     inkscape:showpageshadow="0"
     inkscape:pageopacity="0"
     inkscape:pagecheckerboard="1"
     inkscape:deskcolor="#d1d1d1"
     inkscape:document-units="pt"
     inkscape:zoom="0.38272845"
     inkscape:cx="-190.73576"
     inkscape:cy="22.208958"
     inkscape:window-width="1920"
     inkscape:window-height="974"
     inkscape:window-x="-11"
     inkscape:window-y="-11"
     inkscape:window-maximized="1"
     inkscape:current-layer="svg1" />
  <g
     transform="matrix(0.10044215,0,0,-0.10044201,-6.1422039e-4,514.26318)"
     fill="#000000"
     stroke="none"
     id="g1"
     style="fill:#008000;fill-opacity:1">
    <path
       d="M 2075,5113 C 1638,5075 1235,4918 875,4647 772,4569 551,4348 473,4245 67,3707 -82,3067 46,2420 174,1776 597,1202 1177,888 1960,462 2905,533 3615,1069 l 80,61 545,-543 C 4540,288 4813,26 4813,26 l 281,281 c 1.0228,-0.30948 -262,273 -561,573 l -543,545 61,80 c 852,1129 472,2742 -796,3378 -352,177 -798,264 -1180,230 z m 432,-429 c 913,-133 1583,-903 1583,-1819 0,-1014 -821,-1835 -1835,-1835 -695,0 -1322,386 -1639,1010 -227,446 -260,972 -89,1445 138,384 411,723 751,934 159,99 356,184 522,227 207,53 499,69 707,38 z"
       id="path1"
       sodipodi:nodetypes="ccccccccccccccccssccccc"
       style="fill:#008000;fill-opacity:1" />
  </g>
</svg>
